<svg width="32" height="32" viewBox="0 0 32 32" fill="none" xmlns="http://www.w3.org/2000/svg">
<g clip-path="url(#clip0_4_15)">
<g filter="url(#filter0_d_4_15)">
<path d="M15.2382 2.17889V1.73281C15.2382 1.32804 15.5792 1 16 1C16.4208 1 16.7618 1.32804 16.7618 1.73281V2.17889C16.7618 2.58382 16.4208 2.91186 16 2.91186C15.5792 2.91186 15.2382 2.58367 15.2382 2.17889ZM7.87064 4.47035C8.01184 4.70568 8.26787 4.83714 8.53127 4.83714C8.66054 4.83714 8.79137 4.80548 8.91122 4.739C9.27577 4.53668 9.4008 4.08849 9.19048 3.73799L8.95881 3.35161C8.74849 3.00095 8.28247 2.8808 7.91823 3.08296C7.55383 3.28528 7.42881 3.73347 7.63896 4.08397L7.87064 4.47035ZM23.0885 4.739C23.2084 4.80563 23.3393 4.83729 23.4686 4.83729C23.7319 4.83729 23.988 4.70568 24.1291 4.47065L24.3609 4.08442C24.5714 3.73377 24.4465 3.28558 24.0821 3.08327C23.7177 2.88095 23.2519 3.00111 23.0414 3.35161L22.8096 3.73784C22.5992 4.08834 22.7241 4.53653 23.0885 4.739ZM28.938 10.0974C29.0673 10.0974 29.1983 10.0657 29.3183 9.99894L29.7199 9.77598C30.0843 9.57352 30.209 9.12518 29.9986 8.77482C29.7883 8.42432 29.3224 8.30417 28.958 8.50663L28.5564 8.72975C28.192 8.93221 28.0673 9.3804 28.2776 9.7309C28.4188 9.96593 28.6746 10.0974 28.938 10.0974ZM30.9184 23.0949C29.9291 24.981 27.1646 26.2482 24.0392 26.2482C21.8968 26.2482 19.89 25.6538 18.5255 24.6361C17.7439 25.1514 16.9189 25.483 16.1013 25.5845C16.0641 25.5891 16.0267 25.5908 15.9906 25.5905C15.9601 25.5902 15.9295 25.5882 15.8989 25.5845C15.0813 25.483 14.2561 25.1512 13.4745 24.6361C12.1102 25.654 10.1034 26.2482 7.9608 26.2482C4.83545 26.2482 2.07097 24.981 1.08168 23.0949C0.972813 22.8873 0.972735 22.6424 1.08168 22.4348C1.81161 21.0427 3.48074 19.9873 5.59299 19.5297C4.49697 18.0322 4.09676 16.2628 4.5931 14.749C4.65388 14.5638 4.78865 14.4092 4.9677 14.3195C6.21954 13.6923 7.80718 13.6467 9.35258 14.1677C9.5819 13.4367 9.943 12.8004 10.4321 12.3046C10.5995 12.135 10.8411 12.0524 11.0822 12.0822C11.4818 12.1318 11.8831 12.2364 12.2805 12.3907C13.0866 10.7518 14.2746 9.52965 15.6821 8.90839C15.8838 8.8193 16.1158 8.8193 16.3176 8.90839C17.7245 9.52935 18.9122 10.7508 19.7185 12.3884C20.1158 12.2355 20.5176 12.132 20.9178 12.0822C21.1591 12.0524 21.4005 12.135 21.5679 12.3046C22.0572 12.8004 22.418 13.4366 22.6475 14.1676C24.193 13.6467 25.7805 13.6923 27.0322 14.3194C27.2112 14.4092 27.346 14.5636 27.4068 14.7489C27.9033 16.2626 27.5031 18.032 26.4069 19.5296C28.5193 19.987 30.1885 21.0426 30.9184 22.4345C31.0272 22.6424 31.0272 22.8873 30.9184 23.0949ZM21.6939 21.016C22.5212 20.8182 23.3431 20.4111 24.067 19.8267C25.5457 18.6334 26.32 16.8956 26.0334 15.4914C25.1384 15.157 24.0223 15.2088 22.9223 15.6334C23.0279 17.0018 22.7714 18.5497 22.1378 20.0731C22.003 20.3969 21.8546 20.7118 21.6939 21.016ZM13.6164 13.1046C14.4941 13.7057 15.3127 14.5377 15.9985 15.5328C16.6877 14.527 17.5054 13.6963 18.381 13.0989C17.7942 11.8793 16.9542 10.9253 16 10.3983C15.0441 10.9262 14.2032 11.8823 13.6164 13.1046ZM7.93284 19.8267C8.65661 20.4111 9.4787 20.8184 10.3061 21.016C10.1456 20.7117 9.99719 20.397 9.86227 20.0729C9.22865 18.5497 8.97216 17.0018 9.07771 15.6334C7.97792 15.2087 6.86163 15.1568 5.96666 15.4912C5.67985 16.8956 6.4542 18.6332 7.93284 19.8267ZM12.2711 23.6642C11.9429 23.3467 11.6296 22.996 11.3357 22.6173C9.82614 22.5925 8.25106 21.9973 6.95336 20.9495C6.8987 20.9055 6.84514 20.8611 6.79205 20.8158C4.93645 21.037 3.38131 21.7728 2.64969 22.7646C3.53917 23.9682 5.64247 24.7826 7.96064 24.7826C9.6064 24.7826 11.1805 24.365 12.2711 23.6642ZM15.7039 18.1384C14.9447 16.3131 13.6753 14.8077 12.341 14.048C12.3037 14.031 12.2685 14.0114 12.2354 13.9895C11.9197 13.8195 11.6012 13.6917 11.2853 13.6116C10.9694 14.0461 10.758 14.6018 10.6528 15.2349C10.6501 15.2735 10.6441 15.3121 10.6349 15.3504C10.4591 16.5732 10.6688 18.0667 11.2768 19.5285C11.8905 21.0037 12.837 22.2697 13.8821 23.1023C13.9065 23.1192 13.93 23.1377 13.9525 23.1578C14.5187 23.5965 15.1121 23.9075 15.6955 24.0554C16.6319 22.7676 16.6506 20.4144 15.7039 18.1384ZM20.7231 19.5284C21.3309 18.0673 21.5406 16.5741 21.3653 15.3515C21.3557 15.3123 21.3496 15.2728 21.3469 15.2333C21.2417 14.6007 21.0303 14.0455 20.7146 13.6113C20.4034 13.69 20.0891 13.8148 19.7772 13.981C19.7359 14.0096 19.6911 14.0345 19.6431 14.0551C18.6067 14.6476 17.6065 15.691 16.8537 17.0048C16.947 17.1974 17.0353 17.3939 17.1185 17.5939C17.9824 19.671 18.1453 21.7935 17.6452 23.4447C17.781 23.3559 17.9161 23.2594 18.0494 23.156C18.0707 23.1373 18.0926 23.1199 18.1154 23.1041C19.1613 22.2715 20.1091 21.0046 20.7231 19.5284ZM29.3504 22.7646C28.6186 21.7728 27.0633 21.0371 25.2077 20.8158C25.1547 20.8609 25.1009 20.9055 25.0464 20.9495C23.7487 21.9971 22.1737 22.5923 20.6642 22.6173C20.3704 22.996 20.0571 23.3465 19.729 23.6642C20.8195 24.3649 22.3938 24.7825 24.0392 24.7825C26.3574 24.7826 28.4607 23.9682 29.3504 22.7646ZM23.3854 28.1851C23.0681 27.9193 22.5868 27.9513 22.3106 28.2564C21.8301 28.7871 19.5546 29.5342 16 29.5342C12.4454 29.5342 10.1698 28.7871 9.68949 28.2564C9.41305 27.9513 8.93179 27.9193 8.61451 28.1851C8.29739 28.4511 8.26409 28.914 8.54053 29.2191C9.7308 30.5336 13.3028 31 16.0002 31C18.6974 31 22.2694 30.5336 23.4597 29.2191C23.7358 28.9139 23.7026 28.4511 23.3854 28.1851ZM5.98503 12.6783C6.38964 12.7879 6.81074 12.5612 6.92477 12.1716C8.06367 8.28306 11.7955 5.56724 16 5.56724C20.2046 5.56724 23.9364 8.28306 25.0753 12.1716C25.1698 12.4948 25.4755 12.7059 25.8081 12.7059C25.8765 12.7059 25.9461 12.697 26.0152 12.6783C26.4201 12.5684 26.6558 12.1636 26.5418 11.7741C25.2187 7.25658 20.8837 4.10161 16 4.10161C11.1161 4.10161 6.78121 7.25658 5.45823 11.7741C5.3442 12.1636 5.57996 12.5684 5.98503 12.6783ZM16 28.5368C16.6545 28.5368 18.8508 28.4697 19.6325 27.6059C19.9088 27.3007 19.8755 26.8377 19.5582 26.5719C19.2425 26.3075 18.7646 26.3378 18.4877 26.6387C18.3139 26.7907 17.4122 27.0711 16 27.0711C14.5875 27.0711 13.6858 26.7905 13.5121 26.6385C13.2351 26.3378 12.7573 26.3075 12.4416 26.5719C12.1244 26.8378 12.0911 27.3008 12.3675 27.6059C13.1494 28.4697 15.3457 28.5368 16 28.5368ZM2.28011 9.77583L2.68142 9.99894C2.80142 10.0656 2.93241 10.0974 3.06184 10.0974C3.32508 10.0974 3.58095 9.96608 3.72215 9.73106C3.93278 9.38055 3.80807 8.93221 3.44367 8.72975L3.04236 8.50663C2.67828 8.30432 2.21208 8.42402 2.00164 8.77467C1.79112 9.12503 1.9158 9.57322 2.28011 9.77583Z" fill="white"/>
</g>
</g>
<defs>
<filter id="filter0_d_4_15" x="-119" y="-115" width="270" height="270" filterUnits="userSpaceOnUse" color-interpolation-filters="sRGB">
<feFlood flood-opacity="0" result="BackgroundImageFix"/>
<feColorMatrix in="SourceAlpha" type="matrix" values="0 0 0 0 0 0 0 0 0 0 0 0 0 0 0 0 0 0 127 0" result="hardAlpha"/>
<feOffset dy="4"/>
<feGaussianBlur stdDeviation="60"/>
<feColorMatrix type="matrix" values="0 0 0 0 1 0 0 0 0 1 0 0 0 0 1 0 0 0 0.5 0"/>
<feBlend mode="normal" in2="BackgroundImageFix" result="effect1_dropShadow_4_15"/>
<feBlend mode="normal" in="SourceGraphic" in2="effect1_dropShadow_4_15" result="shape"/>
</filter>
<clipPath id="clip0_4_15">
<rect width="32" height="32" fill="white"/>
</clipPath>
</defs>
</svg>
